<?xml version="1.0" encoding="utf-8"?>
<!-- Generator: Adobe Illustrator 20.0.0, SVG Export Plug-In . SVG Version: 6.00 Build 0)  -->
<svg version="1.1" id="Calque_1" xmlns="http://www.w3.org/2000/svg" xmlns:xlink="http://www.w3.org/1999/xlink" x="0px" y="0px"
	 viewBox="0 0 139.8 170.7" style="enable-background:new 0 0 139.8 170.7;" xml:space="preserve">
<g>
	<path d="M70.4,0.2c-1.1,0-2.1,0.9-2.1,2.1v166.3c0,1.1,0.9,2.1,2.1,2.1c1.1,0,2.1-0.9,2.1-2.1V2.3C72.4,1.2,71.5,0.2,70.4,0.2z"/>
	<path d="M64.5,51l-1.4-0.8C28.3,30.1,8.7,18.8,7.8,18.2c-1.4-0.8-3.2-0.9-4.7-0.1c-1.4,0.8-2.2,2.3-2.2,3.9v110.4
		c0,1.1,0.9,2.1,2.1,2.1c1.1,0,2.1-0.9,2.1-2.1V22.1c0-0.2,0-0.2,0.2-0.3c0.1-0.1,0.4-0.1,0.5,0c1.6,1,54.2,31.3,56.7,32.8
		c1,0.6,2.3,0.2,2.8-0.7c0.3-0.5,0.4-1,0.2-1.6C65.3,51.7,64.9,51.2,64.5,51z"/>
	<path d="M137.6,18.2c-1.4-0.8-3.2-0.8-4.7,0.1c-1.3,0.7-35.2,20.3-55.3,31.9L76.2,51c-0.5,0.3-0.8,0.7-1,1.3
		c-0.1,0.5-0.1,1.1,0.2,1.6c0.5,0.9,1.9,1.3,2.8,0.8C81,53,133.4,22.7,135,21.8c0.2-0.1,0.4-0.1,0.5,0c0.1,0.1,0.2,0.2,0.2,0.3
		v110.4c0,1.1,0.9,2.1,2.1,2.1c1.1,0,2.1-0.9,2.1-2.1V22.1C139.8,20.4,139,19,137.6,18.2z"/>
</g>
</svg>
