<svg xmlns="http://www.w3.org/2000/svg" viewBox="0 0 123.45 224.93"><defs><style>.cls-1{fill:#1a171b;}</style></defs><title>Fichier 1</title><g id="Calque_2" data-name="Calque 2"><g id="Calque_1-2" data-name="Calque 1"><polygon class="cls-1" points="17.43 196.13 17.43 175.56 15.13 175.56 8.79 189.95 2.29 175.56 0 175.56 0 196.13 2.47 196.13 2.47 182.35 2.71 182.3 7.71 193.38 9.83 193.38 14.72 182.36 14.96 182.41 14.96 196.13 17.43 196.13"/><path class="cls-1" d="M38,191.37l1.71,4.76h2.65l-7.57-20.57h-2l-7.57,20.57h2.65l1.71-4.76ZM33.75,179.5l3.4,9.57h-6.8Z"/><rect class="cls-1" x="50.06" y="175.56" width="2.47" height="20.57"/><path class="cls-1" d="M75.58,190.38a5.57,5.57,0,0,0-.5-2.37,5.08,5.08,0,0,0-1.37-1.8,5,5,0,0,0-1.51-.9,11.12,11.12,0,0,0-2.23-.51l-2.12-.33a7.37,7.37,0,0,1-1.51-.42,4.25,4.25,0,0,1-1.18-.68,2.66,2.66,0,0,1-.84-2.18,3.3,3.3,0,0,1,1-2.6,4.33,4.33,0,0,1,3-1,7.4,7.4,0,0,1,1.48.13,5.75,5.75,0,0,1,1.14.34,5.55,5.55,0,0,1,.95.51,7.06,7.06,0,0,1,.86.7l.35.32L74.82,178l-.4-.35a9.35,9.35,0,0,0-2.69-1.68,9.06,9.06,0,0,0-3.27-.53A7,7,0,0,0,63.68,177a5.48,5.48,0,0,0-1.79,4.29,4.93,4.93,0,0,0,1.7,4,7.27,7.27,0,0,0,3.74,1.55l2.3.35a9.65,9.65,0,0,1,1,.18,6,6,0,0,1,.68.19,2,2,0,0,1,.45.22c.16.1.31.22.47.35a2.19,2.19,0,0,1,.67,1,4,4,0,0,1,.23,1.41A3.09,3.09,0,0,1,72,193a5.37,5.37,0,0,1-3.38,1,10.14,10.14,0,0,1-1.53-.1,5.28,5.28,0,0,1-1.28-.35,6.41,6.41,0,0,1-1.18-.66,9.75,9.75,0,0,1-1.22-1.05l-.35-.34-1.74,1.75.35.35A11.27,11.27,0,0,0,63,194.78a8.33,8.33,0,0,0,1.58.86,8.55,8.55,0,0,0,1.78.5,13.08,13.08,0,0,0,2.07.16,7.88,7.88,0,0,0,5.16-1.57A5.38,5.38,0,0,0,75.58,190.38Z"/><path class="cls-1" d="M97.55,192.65a6.44,6.44,0,0,0,.6-1.75,12.71,12.71,0,0,0,.21-2.19q0-1.2,0-2.86t0-2.87a12.85,12.85,0,0,0-.21-2.2,6.42,6.42,0,0,0-.6-1.75,6.18,6.18,0,0,0-1.12-1.48A7.26,7.26,0,0,0,94,176a7.58,7.58,0,0,0-5.71,0,7.3,7.3,0,0,0-2.39,1.59A6.18,6.18,0,0,0,84.82,179a6.51,6.51,0,0,0-.6,1.75A13.14,13.14,0,0,0,84,183q0,1.21,0,2.87c0,1.1,0,2.06,0,2.86a12.82,12.82,0,0,0,.22,2.19,6.47,6.47,0,0,0,.59,1.75,6.12,6.12,0,0,0,1.13,1.5,7.19,7.19,0,0,0,2.38,1.59,7.58,7.58,0,0,0,5.71,0,7.2,7.2,0,0,0,2.39-1.59A6,6,0,0,0,97.55,192.65Zm-1.67-4.13a12.74,12.74,0,0,1-.18,1.86,4.64,4.64,0,0,1-.41,1.26,4,4,0,0,1-.73,1,4.57,4.57,0,0,1-1.54,1,4.89,4.89,0,0,1-3.65,0,4.6,4.6,0,0,1-1.54-1,3.82,3.82,0,0,1-.74-1,4.62,4.62,0,0,1-.41-1.26,13.35,13.35,0,0,1-.18-1.86c0-.74,0-1.63,0-2.67s0-1.93,0-2.67a13.15,13.15,0,0,1,.18-1.85,4.74,4.74,0,0,1,.41-1.26,4,4,0,0,1,.73-1,4.69,4.69,0,0,1,1.54-1,4.89,4.89,0,0,1,3.65,0,4.61,4.61,0,0,1,1.54,1,3.89,3.89,0,0,1,.73,1,4.69,4.69,0,0,1,.41,1.26,12.69,12.69,0,0,1,.18,1.86q0,1.11,0,2.67C95.92,186.88,95.9,187.77,95.88,188.51Z"/><polygon class="cls-1" points="123.45 196.13 123.45 175.56 120.98 175.56 120.98 191.4 110.42 175.56 108.19 175.56 108.19 196.13 110.65 196.13 110.65 180.24 121.21 196.13 123.45 196.13"/><rect class="cls-1" y="206.59" width="2.37" height="18.2"/><polygon class="cls-1" points="22.57 220.18 13.52 206.59 11.39 206.59 11.39 224.79 13.77 224.79 13.77 211.15 22.82 224.79 24.95 224.79 24.95 206.59 22.57 206.59 22.57 220.18"/><polygon class="cls-1" points="32.05 208.82 37.14 208.82 37.14 224.79 39.52 224.79 39.52 208.82 44.64 208.82 44.64 206.59 32.05 206.59 32.05 208.82"/><polygon class="cls-1" points="51.74 224.79 63.2 224.79 63.2 222.55 54.11 222.55 54.11 216.74 59.54 216.81 59.54 214.58 54.11 214.51 54.11 208.82 63.2 208.82 63.2 206.59 51.74 206.59 51.74 224.79"/><path class="cls-1" d="M72.82,211.76a4,4,0,0,1,.35-1.08,3.25,3.25,0,0,1,.62-.84A3.93,3.93,0,0,1,75.1,209a4.07,4.07,0,0,1,4.15.6,4.4,4.4,0,0,1,1.42,2.52l.09.43h2.37L83,211.9a6.87,6.87,0,0,0-.77-2.23,6.12,6.12,0,0,0-1.41-1.72,6.25,6.25,0,0,0-1.91-1.11,6.79,6.79,0,0,0-4.83.1A6.47,6.47,0,0,0,72,208.36a5.67,5.67,0,0,0-1,1.32,5.58,5.58,0,0,0-.53,1.56,11.38,11.38,0,0,0-.19,1.94q0,1.06,0,2.51c0,1,0,1.8,0,2.5a11.25,11.25,0,0,0,.19,1.93,5.81,5.81,0,0,0,.53,1.56A5.43,5.43,0,0,0,72,223a6.42,6.42,0,0,0,2.12,1.41,6.7,6.7,0,0,0,5.23-.07,6.34,6.34,0,0,0,2.19-1.58,5.2,5.2,0,0,0,1.2-2,8.32,8.32,0,0,0,.34-2.5V215h-7v2.23h4.59v1a6.17,6.17,0,0,1-.22,1.74,4,4,0,0,1-.69,1.3,3.86,3.86,0,0,1-1.42,1.09,4.17,4.17,0,0,1-3.28.08,3.88,3.88,0,0,1-1.31-.87,3.29,3.29,0,0,1-.62-.84,4.06,4.06,0,0,1-.35-1.08,11.18,11.18,0,0,1-.16-1.61c0-.64,0-1.42,0-2.33s0-1.68,0-2.32A11.13,11.13,0,0,1,72.82,211.76Z"/><path class="cls-1" d="M102.67,215.19a5,5,0,0,0,1.21-3.47,5.5,5.5,0,0,0-.42-2.2,4.52,4.52,0,0,0-1.17-1.62,5,5,0,0,0-1.73-1,6.56,6.56,0,0,0-2.12-.33H91.38v18.2h2.38V216.9H97.6l4.09,7.89h2.73l-4.22-8.08A5.15,5.15,0,0,0,102.67,215.19Zm-4.4-.53H93.76v-5.85h4.51a4.91,4.91,0,0,1,1.36.18,2.67,2.67,0,0,1,1,.53,2.4,2.4,0,0,1,.63.88,3.36,3.36,0,0,1,.24,1.33,3.47,3.47,0,0,1-.23,1.33,2.43,2.43,0,0,1-.64.88,2.72,2.72,0,0,1-1,.53A4.68,4.68,0,0,1,98.27,214.67Z"/><polygon class="cls-1" points="123.45 208.82 123.45 206.59 111.98 206.59 111.98 224.79 123.45 224.79 123.45 222.55 114.36 222.55 114.36 216.73 122.1 216.73 122.1 214.5 114.36 214.5 114.36 208.82 123.45 208.82"/><rect class="cls-1" x="56.39" y="200.54" width="2.16" height="5.33" transform="translate(-143.49 138.33) rotate(-56.32)"/><path class="cls-1" d="M61.75,0a1.83,1.83,0,0,0-1.83,1.83V149.58a1.83,1.83,0,1,0,3.66,0V1.83A1.83,1.83,0,0,0,61.75,0Z"/><path class="cls-1" d="M56.5,45.06l-1.24-.72C24.41,26.54,7,16.47,6.14,16a4.19,4.19,0,0,0-4.14,0,3.93,3.93,0,0,0-2,3.46v98.06a1.83,1.83,0,1,0,3.66,0V19.39a.27.27,0,0,1,.14-.28.46.46,0,0,1,.46,0C5.7,20,52.46,47,54.67,48.23a1.87,1.87,0,0,0,2.5-.67,1.83,1.83,0,0,0-.67-2.51Z"/><path class="cls-1" d="M121.46,15.93a4.21,4.21,0,0,0-4.14,0C116.2,16.64,86.05,34,68.18,44.35l-1.22.7a1.83,1.83,0,0,0-.67,2.5,1.88,1.88,0,0,0,2.5.67c2.37-1.37,49-28.25,50.4-29.1a.48.48,0,0,1,.46,0,.27.27,0,0,1,.14.28v98.06a1.83,1.83,0,1,0,3.66,0V19.39A3.93,3.93,0,0,0,121.46,15.93Z"/></g></g></svg>